<svg xmlns="http://www.w3.org/2000/svg" width="256" height="160" viewBox="0 0 256 160" fill="none">

<defs>
  <linearGradient id="glass" x1="40" y1="20" x2="210" y2="150" gradientUnits="userSpaceOnUse">
    <stop stop-color="#172033" stop-opacity="0.92"/>
    <stop offset="1" stop-color="#0B1626" stop-opacity="0.68"/>
  </linearGradient>
  <linearGradient id="tealGrad" x1="0" y1="0" x2="220" y2="160" gradientUnits="userSpaceOnUse">
    <stop stop-color="#38BDF8"/>
    <stop offset="1" stop-color="#19D3C5"/>
  </linearGradient>
  <filter id="shadow" x="-20%" y="-20%" width="140%" height="140%">
    <feDropShadow dx="0" dy="10" stdDeviation="12" flood-color="#000000" flood-opacity="0.32"/>
  </filter>
  <filter id="glow" x="-40%" y="-40%" width="180%" height="180%">
    <feDropShadow dx="0" dy="0" stdDeviation="8" flood-color="#19D3C5" flood-opacity="0.35"/>
  </filter>
</defs>

<g filter="url(#shadow)" stroke-linecap="round" stroke-linejoin="round">
  <rect x="47" y="56" width="154" height="72" rx="16" fill="url(#glass)" stroke="#22324A" stroke-width="2"/>
  <path d="M62 58C62 50 68 44 76 44H111L122 56H190C197 56 202 61 202 68V77H62V58Z" fill="#172033" stroke="#22324A" stroke-width="2"/>
  <path d="M88 34H118C122 34 125 37 125 41V113L106.5 102L88 113V41C88 37 91 34 95 34Z" fill="url(#tealGrad)" opacity="0.95"/>
  <path d="M145 71V100M132 87L145 100L158 87" stroke="#22C55E" stroke-width="5"/>
  <path d="M129 111H162" stroke="#22C55E" stroke-width="4"/>
  <circle cx="180" cy="51" r="17" fill="#22C55E"/>
  <path d="M171 51L178 58L191 44" stroke="#07111F" stroke-width="4"/>
</g>
</svg>
