<svg xmlns="http://www.w3.org/2000/svg" width="256" height="160" viewBox="0 0 256 160" fill="none">

<defs>
  <linearGradient id="glass" x1="40" y1="20" x2="210" y2="150" gradientUnits="userSpaceOnUse">
    <stop stop-color="#172033" stop-opacity="0.92"/>
    <stop offset="1" stop-color="#0B1626" stop-opacity="0.68"/>
  </linearGradient>
  <linearGradient id="tealGrad" x1="0" y1="0" x2="220" y2="160" gradientUnits="userSpaceOnUse">
    <stop stop-color="#38BDF8"/>
    <stop offset="1" stop-color="#19D3C5"/>
  </linearGradient>
  <filter id="shadow" x="-20%" y="-20%" width="140%" height="140%">
    <feDropShadow dx="0" dy="10" stdDeviation="12" flood-color="#000000" flood-opacity="0.32"/>
  </filter>
  <filter id="glow" x="-40%" y="-40%" width="180%" height="180%">
    <feDropShadow dx="0" dy="0" stdDeviation="8" flood-color="#19D3C5" flood-opacity="0.35"/>
  </filter>
</defs>

<g filter="url(#shadow)" stroke-linecap="round" stroke-linejoin="round">
  <rect x="39" y="49" width="178" height="77" rx="18" fill="url(#glass)" stroke="#22324A" stroke-width="2"/>
  <path d="M87 82L72 67C64 59 51 59 43 67C35 75 35 88 43 96L59 112C67 120 80 120 88 112" stroke="#38BDF8" stroke-width="7"/>
  <path d="M168 82L184 67C192 59 205 59 213 67C221 75 221 88 213 96L197 112C189 120 176 120 168 112" stroke="#64748B" stroke-width="7"/>
  <path d="M91 112L111 92M145 68L165 48" stroke="#EF4444" stroke-width="5"/>
  <circle cx="129" cy="83" r="22" stroke="#19D3C5" stroke-width="4" opacity="0.9"/>
  <circle cx="129" cy="83" r="39" stroke="#19D3C5" stroke-width="2" opacity="0.28"/>
  <path d="M129 61V72M129 94V105M107 83H118M140 83H151" stroke="#19D3C5" stroke-width="3"/>
  <circle cx="193" cy="48" r="7" fill="#F59E0B"/>
  <circle cx="207" cy="114" r="5" fill="#EF4444" opacity="0.9"/>
</g>
</svg>
