<svg xmlns="http://www.w3.org/2000/svg" width="256" height="160" viewBox="0 0 256 160" fill="none">

<defs>
  <linearGradient id="glass" x1="40" y1="20" x2="210" y2="150" gradientUnits="userSpaceOnUse">
    <stop stop-color="#172033" stop-opacity="0.92"/>
    <stop offset="1" stop-color="#0B1626" stop-opacity="0.68"/>
  </linearGradient>
  <linearGradient id="tealGrad" x1="0" y1="0" x2="220" y2="160" gradientUnits="userSpaceOnUse">
    <stop stop-color="#38BDF8"/>
    <stop offset="1" stop-color="#19D3C5"/>
  </linearGradient>
  <filter id="shadow" x="-20%" y="-20%" width="140%" height="140%">
    <feDropShadow dx="0" dy="10" stdDeviation="12" flood-color="#000000" flood-opacity="0.32"/>
  </filter>
  <filter id="glow" x="-40%" y="-40%" width="180%" height="180%">
    <feDropShadow dx="0" dy="0" stdDeviation="8" flood-color="#19D3C5" flood-opacity="0.35"/>
  </filter>
</defs>

<g filter="url(#shadow)">
  <rect x="38" y="46" width="180" height="82" rx="18" fill="url(#glass)" stroke="#22324A" stroke-width="2"/>
  <path d="M56 76H200M56 102H200" stroke="#22324A" stroke-width="2" stroke-linecap="round"/>
  <rect x="62" y="60" width="42" height="18" rx="5" stroke="#64748B" stroke-opacity="0.7" stroke-width="2"/>
  <rect x="116" y="86" width="48" height="18" rx="5" stroke="#64748B" stroke-opacity="0.55" stroke-width="2"/>
  <rect x="170" y="60" width="26" height="18" rx="5" stroke="#8B5CF6" stroke-opacity="0.45" stroke-width="2"/>
  <path d="M116 35H142C145 35 148 38 148 41V112L129 100L110 112V41C110 38 113 35 116 35Z" fill="url(#tealGrad)" filter="url(#glow)"/>
  <path d="M120 50H139" stroke="#E5F3FF" stroke-opacity="0.45" stroke-width="4" stroke-linecap="round"/>
  <circle cx="70" cy="132" r="3" fill="#38BDF8" opacity="0.45"/>
  <circle cx="200" cy="34" r="2.5" fill="#8B5CF6" opacity="0.45"/>
</g>
</svg>
