<svg xmlns="http://www.w3.org/2000/svg" width="256" height="160" viewBox="0 0 256 160" fill="none">

<defs>
  <linearGradient id="glass" x1="40" y1="20" x2="210" y2="150" gradientUnits="userSpaceOnUse">
    <stop stop-color="#172033" stop-opacity="0.92"/>
    <stop offset="1" stop-color="#0B1626" stop-opacity="0.68"/>
  </linearGradient>
  <linearGradient id="tealGrad" x1="0" y1="0" x2="220" y2="160" gradientUnits="userSpaceOnUse">
    <stop stop-color="#38BDF8"/>
    <stop offset="1" stop-color="#19D3C5"/>
  </linearGradient>
  <filter id="shadow" x="-20%" y="-20%" width="140%" height="140%">
    <feDropShadow dx="0" dy="10" stdDeviation="12" flood-color="#000000" flood-opacity="0.32"/>
  </filter>
  <filter id="glow" x="-40%" y="-40%" width="180%" height="180%">
    <feDropShadow dx="0" dy="0" stdDeviation="8" flood-color="#19D3C5" flood-opacity="0.35"/>
  </filter>
</defs>

<g filter="url(#shadow)">
  <rect x="58" y="61" width="52" height="38" rx="9" fill="#172033" stroke="#22324A" stroke-width="2"/>
  <path d="M75 71H94M75 82H89" stroke="#64748B" stroke-width="2" stroke-linecap="round"/>
  <rect x="140" y="52" width="56" height="42" rx="10" fill="#0B1626" stroke="#22324A" stroke-width="2"/>
  <path d="M158 62H178M158 74H184" stroke="#64748B" stroke-width="2" stroke-linecap="round"/>
  <path d="M105 41H134C137 41 140 44 140 47V112L122.5 101L105 112V47C105 44 108 41 111 41Z" fill="#19D3C5" opacity="0.88"/>
  <circle cx="126" cy="78" r="34" stroke="#38BDF8" stroke-width="7" stroke-opacity="0.86"/>
  <path d="M151 103L186 138" stroke="#19D3C5" stroke-width="8" stroke-linecap="round"/>
  <circle cx="126" cy="78" r="21" fill="#07111F" opacity="0.28"/>
</g>
</svg>
