<svg xmlns="http://www.w3.org/2000/svg" width="24" height="24" viewBox="0 0 24 24" fill="none">

<defs>
  <linearGradient id="tealGrad" x1="4" y1="2" x2="20" y2="22" gradientUnits="userSpaceOnUse">
    <stop stop-color="#38BDF8"/>
    <stop offset="1" stop-color="#19D3C5"/>
  </linearGradient>
  <filter id="softShadow" x="-30%" y="-30%" width="160%" height="160%">
    <feDropShadow dx="0" dy="2" stdDeviation="2" flood-color="#000000" flood-opacity="0.35"/>
  </filter>
</defs>


<g stroke-linecap="round" stroke-linejoin="round" filter="url(#softShadow)">
  <path d="M4 8C4 6.6 5.1 5.5 6.5 5.5H10L11.7 7.5H17.5C18.9 7.5 20 8.6 20 10V17.2C20 18.6 18.9 19.7 17.5 19.7H6.5C5.1 19.7 4 18.6 4 17.2V8Z" fill="#172033" stroke="#38BDF8" stroke-opacity="0.65" stroke-width="1.4"/>
  <path d="M12 10.2V15.8" stroke="#22C55E" stroke-width="1.8"/>
  <path d="M9.6 13.5L12 15.9L14.4 13.5" stroke="#22C55E" stroke-width="1.8"/>
  <path d="M8.3 18H15.7" stroke="#19D3C5" stroke-width="1.4"/>
  <path d="M18.2 5L20.8 2.4M20.8 2.4H17.8M20.8 2.4V5.4" stroke="#22C55E" stroke-width="1.4"/>
</g>
</svg>
