<svg xmlns="http://www.w3.org/2000/svg" width="24" height="24" viewBox="0 0 24 24" fill="none">

<defs>
  <linearGradient id="tealGrad" x1="4" y1="2" x2="20" y2="22" gradientUnits="userSpaceOnUse">
    <stop stop-color="#38BDF8"/>
    <stop offset="1" stop-color="#19D3C5"/>
  </linearGradient>
  <filter id="softShadow" x="-30%" y="-30%" width="160%" height="160%">
    <feDropShadow dx="0" dy="2" stdDeviation="2" flood-color="#000000" flood-opacity="0.35"/>
  </filter>
</defs>


<g stroke-linecap="round" stroke-linejoin="round" filter="url(#softShadow)">
  <path d="M9.6 8.1L8.2 6.7C6.7 5.2 4.3 5.2 2.9 6.7C1.4 8.2 1.4 10.5 2.9 12L5.1 14.2C6.2 15.3 7.8 15.6 9.2 15" stroke="#38BDF8" stroke-width="1.7"/>
  <path d="M14.4 15.9L15.8 17.3C17.3 18.8 19.7 18.8 21.1 17.3C22.6 15.8 22.6 13.5 21.1 12L18.9 9.8C17.8 8.7 16.2 8.4 14.8 9" stroke="#64748B" stroke-width="1.7"/>
  <path d="M8.5 15.5L10.2 13.8M13.8 10.2L15.5 8.5" stroke="#EF4444" stroke-width="1.6"/>
  <circle cx="18.8" cy="5.2" r="2.8" fill="#EF4444"/>
</g>
</svg>
